<mxfile host="app.diagrams.net" modified="2023-12-21T23:29:19.668Z" agent="Mozilla/5.0 (Macintosh; Intel Mac OS X 10_15_7) AppleWebKit/605.1.15 (KHTML, like Gecko) Version/16.4 Safari/605.1.15" etag="OHHdzB8BmQdETFeD9bjl" version="22.1.11" type="github">
  <diagram id="C5RBs43oDa-KdzZeNtuy" name="Page-1">
    <mxGraphModel dx="1949" dy="1903" grid="1" gridSize="10" guides="1" tooltips="1" connect="1" arrows="1" fold="1" page="1" pageScale="1" pageWidth="827" pageHeight="1169" math="0" shadow="0">
      <root>
        <mxCell id="WIyWlLk6GJQsqaUBKTNV-0" />
        <mxCell id="WIyWlLk6GJQsqaUBKTNV-1" parent="WIyWlLk6GJQsqaUBKTNV-0" />
        <mxCell id="ituSa4Jh_Zp6wQNcWbV0-0" value="" style="rounded=0;whiteSpace=wrap;html=1;" vertex="1" parent="WIyWlLk6GJQsqaUBKTNV-1">
          <mxGeometry x="-770" y="-130" width="1620" height="1470" as="geometry" />
        </mxCell>
        <mxCell id="ituSa4Jh_Zp6wQNcWbV0-1" value="&lt;font style=&quot;font-size: 18px;&quot;&gt;Server&lt;/font&gt;" style="text;html=1;strokeColor=none;fillColor=none;align=center;verticalAlign=middle;whiteSpace=wrap;rounded=0;" vertex="1" parent="WIyWlLk6GJQsqaUBKTNV-1">
          <mxGeometry x="-790" y="-140" width="130" height="50" as="geometry" />
        </mxCell>
        <mxCell id="ituSa4Jh_Zp6wQNcWbV0-2" value="" style="shape=folder;fontStyle=1;spacingTop=10;tabWidth=90;tabHeight=30;tabPosition=left;html=1;whiteSpace=wrap;fillColor=#fff2cc;strokeColor=#d6b656;" vertex="1" parent="WIyWlLk6GJQsqaUBKTNV-1">
          <mxGeometry x="-645" y="-80" width="730" height="480" as="geometry" />
        </mxCell>
        <mxCell id="ituSa4Jh_Zp6wQNcWbV0-3" value="Log" style="swimlane;fontStyle=1;align=center;verticalAlign=top;childLayout=stackLayout;horizontal=1;startSize=26;horizontalStack=0;resizeParent=1;resizeParentMax=0;resizeLast=0;collapsible=1;marginBottom=0;whiteSpace=wrap;html=1;fillColor=#dae8fc;strokeColor=#6c8ebf;" vertex="1" parent="WIyWlLk6GJQsqaUBKTNV-1">
          <mxGeometry x="-440" y="-26" width="260" height="188" as="geometry" />
        </mxCell>
        <mxCell id="ituSa4Jh_Zp6wQNcWbV0-4" value="- fileSize : String&amp;nbsp;&lt;br&gt;-TimeTransferFile :double&amp;nbsp;" style="text;strokeColor=#6c8ebf;fillColor=#dae8fc;align=left;verticalAlign=top;spacingLeft=4;spacingRight=4;overflow=hidden;rotatable=0;points=[[0,0.5],[1,0.5]];portConstraint=eastwest;whiteSpace=wrap;html=1;" vertex="1" parent="ituSa4Jh_Zp6wQNcWbV0-3">
          <mxGeometry y="26" width="260" height="44" as="geometry" />
        </mxCell>
        <mxCell id="ituSa4Jh_Zp6wQNcWbV0-5" value="" style="line;strokeWidth=1;fillColor=none;align=left;verticalAlign=middle;spacingTop=-1;spacingLeft=3;spacingRight=3;rotatable=0;labelPosition=right;points=[];portConstraint=eastwest;strokeColor=inherit;" vertex="1" parent="ituSa4Jh_Zp6wQNcWbV0-3">
          <mxGeometry y="70" width="260" height="8" as="geometry" />
        </mxCell>
        <mxCell id="ituSa4Jh_Zp6wQNcWbV0-6" value="+ Log (backupName : string, sourcePath : string, destinationPath : string) &amp;nbsp;&lt;br&gt;+convertLogToJSON()&lt;br&gt;+fileSize(fileName : string)&amp;nbsp;&lt;br&gt;+path (source : String, destination : string) &amp;nbsp;" style="text;strokeColor=#6c8ebf;fillColor=#dae8fc;align=left;verticalAlign=top;spacingLeft=4;spacingRight=4;overflow=hidden;rotatable=0;points=[[0,0.5],[1,0.5]];portConstraint=eastwest;whiteSpace=wrap;html=1;" vertex="1" parent="ituSa4Jh_Zp6wQNcWbV0-3">
          <mxGeometry y="78" width="260" height="110" as="geometry" />
        </mxCell>
        <mxCell id="ituSa4Jh_Zp6wQNcWbV0-11" value="file&amp;nbsp;" style="swimlane;fontStyle=1;align=center;verticalAlign=top;childLayout=stackLayout;horizontal=1;startSize=26;horizontalStack=0;resizeParent=1;resizeParentMax=0;resizeLast=0;collapsible=1;marginBottom=0;whiteSpace=wrap;html=1;fillColor=#dae8fc;strokeColor=#6c8ebf;" vertex="1" parent="WIyWlLk6GJQsqaUBKTNV-1">
          <mxGeometry x="-625" y="90" width="170" height="134" as="geometry" />
        </mxCell>
        <mxCell id="ituSa4Jh_Zp6wQNcWbV0-12" value="- backupName: string&lt;br&gt;- timestamp : double&lt;br&gt;- sourcePath : string&lt;br&gt;- destinationPath : string&amp;nbsp;&lt;br&gt;- type : string" style="text;strokeColor=#6c8ebf;fillColor=#dae8fc;align=left;verticalAlign=top;spacingLeft=4;spacingRight=4;overflow=hidden;rotatable=0;points=[[0,0.5],[1,0.5]];portConstraint=eastwest;whiteSpace=wrap;html=1;" vertex="1" parent="ituSa4Jh_Zp6wQNcWbV0-11">
          <mxGeometry y="26" width="170" height="74" as="geometry" />
        </mxCell>
        <mxCell id="ituSa4Jh_Zp6wQNcWbV0-13" value="" style="line;strokeWidth=1;fillColor=none;align=left;verticalAlign=middle;spacingTop=-1;spacingLeft=3;spacingRight=3;rotatable=0;labelPosition=right;points=[];portConstraint=eastwest;strokeColor=inherit;" vertex="1" parent="ituSa4Jh_Zp6wQNcWbV0-11">
          <mxGeometry y="100" width="170" height="8" as="geometry" />
        </mxCell>
        <mxCell id="ituSa4Jh_Zp6wQNcWbV0-14" value="+ save ()" style="text;strokeColor=#6c8ebf;fillColor=#dae8fc;align=left;verticalAlign=top;spacingLeft=4;spacingRight=4;overflow=hidden;rotatable=0;points=[[0,0.5],[1,0.5]];portConstraint=eastwest;whiteSpace=wrap;html=1;" vertex="1" parent="ituSa4Jh_Zp6wQNcWbV0-11">
          <mxGeometry y="108" width="170" height="26" as="geometry" />
        </mxCell>
        <mxCell id="ituSa4Jh_Zp6wQNcWbV0-15" value="Settings" style="swimlane;fontStyle=1;align=center;verticalAlign=top;childLayout=stackLayout;horizontal=1;startSize=26;horizontalStack=0;resizeParent=1;resizeParentMax=0;resizeLast=0;collapsible=1;marginBottom=0;whiteSpace=wrap;html=1;fillColor=#dae8fc;strokeColor=#6c8ebf;" vertex="1" parent="WIyWlLk6GJQsqaUBKTNV-1">
          <mxGeometry x="-390" y="240" width="160" height="150" as="geometry" />
        </mxCell>
        <mxCell id="ituSa4Jh_Zp6wQNcWbV0-16" value="- fichierCryptwe : string&lt;br&gt;- FichierMetier : string&amp;nbsp;&lt;br&gt;- fichierPrioritaire: string&lt;br&gt;- maxFileSize : int" style="text;strokeColor=#6c8ebf;fillColor=#dae8fc;align=left;verticalAlign=top;spacingLeft=4;spacingRight=4;overflow=hidden;rotatable=0;points=[[0,0.5],[1,0.5]];portConstraint=eastwest;whiteSpace=wrap;html=1;" vertex="1" parent="ituSa4Jh_Zp6wQNcWbV0-15">
          <mxGeometry y="26" width="160" height="64" as="geometry" />
        </mxCell>
        <mxCell id="ituSa4Jh_Zp6wQNcWbV0-17" value="" style="line;strokeWidth=1;fillColor=none;align=left;verticalAlign=middle;spacingTop=-1;spacingLeft=3;spacingRight=3;rotatable=0;labelPosition=right;points=[];portConstraint=eastwest;strokeColor=inherit;" vertex="1" parent="ituSa4Jh_Zp6wQNcWbV0-15">
          <mxGeometry y="90" width="160" height="8" as="geometry" />
        </mxCell>
        <mxCell id="ituSa4Jh_Zp6wQNcWbV0-18" value="+ convertSettingsToJSON()&lt;br&gt;+ convertSettingsToXML()" style="text;strokeColor=#6c8ebf;fillColor=#dae8fc;align=left;verticalAlign=top;spacingLeft=4;spacingRight=4;overflow=hidden;rotatable=0;points=[[0,0.5],[1,0.5]];portConstraint=eastwest;whiteSpace=wrap;html=1;" vertex="1" parent="ituSa4Jh_Zp6wQNcWbV0-15">
          <mxGeometry y="98" width="160" height="52" as="geometry" />
        </mxCell>
        <mxCell id="ituSa4Jh_Zp6wQNcWbV0-19" value="State" style="swimlane;fontStyle=1;align=center;verticalAlign=top;childLayout=stackLayout;horizontal=1;startSize=26;horizontalStack=0;resizeParent=1;resizeParentMax=0;resizeLast=0;collapsible=1;marginBottom=0;whiteSpace=wrap;html=1;fillColor=#dae8fc;strokeColor=#6c8ebf;" vertex="1" parent="WIyWlLk6GJQsqaUBKTNV-1">
          <mxGeometry x="-120" y="50" width="160" height="180" as="geometry" />
        </mxCell>
        <mxCell id="ituSa4Jh_Zp6wQNcWbV0-20" value="+ stateSave : String&amp;nbsp;&lt;br&gt;- totalFile : int&amp;nbsp;&lt;br&gt;- totalFileSize : double" style="text;strokeColor=#6c8ebf;fillColor=#dae8fc;align=left;verticalAlign=top;spacingLeft=4;spacingRight=4;overflow=hidden;rotatable=0;points=[[0,0.5],[1,0.5]];portConstraint=eastwest;whiteSpace=wrap;html=1;" vertex="1" parent="ituSa4Jh_Zp6wQNcWbV0-19">
          <mxGeometry y="26" width="160" height="54" as="geometry" />
        </mxCell>
        <mxCell id="ituSa4Jh_Zp6wQNcWbV0-21" value="" style="line;strokeWidth=1;fillColor=none;align=left;verticalAlign=middle;spacingTop=-1;spacingLeft=3;spacingRight=3;rotatable=0;labelPosition=right;points=[];portConstraint=eastwest;strokeColor=inherit;" vertex="1" parent="ituSa4Jh_Zp6wQNcWbV0-19">
          <mxGeometry y="80" width="160" height="8" as="geometry" />
        </mxCell>
        <mxCell id="ituSa4Jh_Zp6wQNcWbV0-22" value="+ state(backupName : string, sourcePath : string, destinationPath : string)&lt;br&gt;+convertStateToJSON()&lt;br&gt;+fileSizeStatus()&lt;br&gt;+convertStateToXML()&lt;br&gt;" style="text;strokeColor=#6c8ebf;fillColor=#dae8fc;align=left;verticalAlign=top;spacingLeft=4;spacingRight=4;overflow=hidden;rotatable=0;points=[[0,0.5],[1,0.5]];portConstraint=eastwest;whiteSpace=wrap;html=1;" vertex="1" parent="ituSa4Jh_Zp6wQNcWbV0-19">
          <mxGeometry y="88" width="160" height="92" as="geometry" />
        </mxCell>
        <mxCell id="ituSa4Jh_Zp6wQNcWbV0-23" value="" style="shape=folder;fontStyle=1;spacingTop=10;tabWidth=80;tabHeight=30;tabPosition=left;html=1;whiteSpace=wrap;fillColor=#e1d5e7;strokeColor=#9673a6;" vertex="1" parent="WIyWlLk6GJQsqaUBKTNV-1">
          <mxGeometry x="-700" y="480" width="780" height="480" as="geometry" />
        </mxCell>
        <mxCell id="ituSa4Jh_Zp6wQNcWbV0-28" value="Backup" style="swimlane;fontStyle=0;childLayout=stackLayout;horizontal=1;startSize=26;fillColor=#dae8fc;horizontalStack=0;resizeParent=1;resizeParentMax=0;resizeLast=0;collapsible=1;marginBottom=0;whiteSpace=wrap;html=1;strokeColor=#6c8ebf;" vertex="1" parent="WIyWlLk6GJQsqaUBKTNV-1">
          <mxGeometry x="-680" y="590" width="340" height="130" as="geometry" />
        </mxCell>
        <mxCell id="ituSa4Jh_Zp6wQNcWbV0-29" value="+ full ()&lt;br&gt;+ differential ()&lt;br&gt;+ Backup (backupName : string, sourcePath : string, destinationPath : string) &amp;nbsp;" style="text;strokeColor=#6c8ebf;fillColor=#dae8fc;align=left;verticalAlign=top;spacingLeft=4;spacingRight=4;overflow=hidden;rotatable=0;points=[[0,0.5],[1,0.5]];portConstraint=eastwest;whiteSpace=wrap;html=1;" vertex="1" parent="ituSa4Jh_Zp6wQNcWbV0-28">
          <mxGeometry y="26" width="340" height="104" as="geometry" />
        </mxCell>
        <mxCell id="ituSa4Jh_Zp6wQNcWbV0-32" value="Travaux sauvegardes" style="swimlane;fontStyle=1;align=center;verticalAlign=top;childLayout=stackLayout;horizontal=1;startSize=26;horizontalStack=0;resizeParent=1;resizeParentMax=0;resizeLast=0;collapsible=1;marginBottom=0;whiteSpace=wrap;html=1;fillColor=#dae8fc;strokeColor=#6c8ebf;" vertex="1" parent="WIyWlLk6GJQsqaUBKTNV-1">
          <mxGeometry x="-260" y="580" width="220" height="198" as="geometry" />
        </mxCell>
        <mxCell id="ituSa4Jh_Zp6wQNcWbV0-33" value="+ travaux_sauvegardeTOJSON()&lt;br&gt;+ DisplayBackup()&lt;br&gt;+ executeSave()&lt;br&gt;+ travaux_Sauvegarde(backupName : string, sourcePath : string, destinationPath : string) &amp;nbsp;&lt;br&gt;+ travaux_Sauvegarde()&lt;br&gt;+ SaveStatus()" style="text;strokeColor=#6c8ebf;fillColor=#dae8fc;align=left;verticalAlign=top;spacingLeft=4;spacingRight=4;overflow=hidden;rotatable=0;points=[[0,0.5],[1,0.5]];portConstraint=eastwest;whiteSpace=wrap;html=1;" vertex="1" parent="ituSa4Jh_Zp6wQNcWbV0-32">
          <mxGeometry y="26" width="220" height="164" as="geometry" />
        </mxCell>
        <mxCell id="ituSa4Jh_Zp6wQNcWbV0-34" value="" style="line;strokeWidth=1;fillColor=none;align=left;verticalAlign=middle;spacingTop=-1;spacingLeft=3;spacingRight=3;rotatable=0;labelPosition=right;points=[];portConstraint=eastwest;strokeColor=inherit;" vertex="1" parent="ituSa4Jh_Zp6wQNcWbV0-32">
          <mxGeometry y="190" width="220" height="8" as="geometry" />
        </mxCell>
        <mxCell id="ituSa4Jh_Zp6wQNcWbV0-36" value="" style="shape=folder;fontStyle=1;spacingTop=10;tabWidth=60;tabHeight=30;tabPosition=left;html=1;whiteSpace=wrap;fillColor=#ffe6cc;strokeColor=#d79b00;" vertex="1" parent="WIyWlLk6GJQsqaUBKTNV-1">
          <mxGeometry x="170" y="555" width="400" height="200" as="geometry" />
        </mxCell>
        <mxCell id="ituSa4Jh_Zp6wQNcWbV0-37" value="interface&amp;nbsp;" style="swimlane;fontStyle=1;align=center;verticalAlign=top;childLayout=stackLayout;horizontal=1;startSize=26;horizontalStack=0;resizeParent=1;resizeParentMax=0;resizeLast=0;collapsible=1;marginBottom=0;whiteSpace=wrap;html=1;fillColor=#dae8fc;strokeColor=#6c8ebf;" vertex="1" parent="WIyWlLk6GJQsqaUBKTNV-1">
          <mxGeometry x="280" y="630" width="160" height="60" as="geometry" />
        </mxCell>
        <mxCell id="ituSa4Jh_Zp6wQNcWbV0-38" value="+ mainWindow()" style="text;strokeColor=#6c8ebf;fillColor=#dae8fc;align=left;verticalAlign=top;spacingLeft=4;spacingRight=4;overflow=hidden;rotatable=0;points=[[0,0.5],[1,0.5]];portConstraint=eastwest;whiteSpace=wrap;html=1;" vertex="1" parent="ituSa4Jh_Zp6wQNcWbV0-37">
          <mxGeometry y="26" width="160" height="26" as="geometry" />
        </mxCell>
        <mxCell id="ituSa4Jh_Zp6wQNcWbV0-39" value="" style="line;strokeWidth=1;fillColor=none;align=left;verticalAlign=middle;spacingTop=-1;spacingLeft=3;spacingRight=3;rotatable=0;labelPosition=right;points=[];portConstraint=eastwest;strokeColor=inherit;" vertex="1" parent="ituSa4Jh_Zp6wQNcWbV0-37">
          <mxGeometry y="52" width="160" height="8" as="geometry" />
        </mxCell>
        <mxCell id="ituSa4Jh_Zp6wQNcWbV0-42" value="" style="endArrow=diamondThin;endFill=1;endSize=24;html=1;rounded=0;entryX=0.75;entryY=0;entryDx=0;entryDy=0;exitX=0.081;exitY=1.019;exitDx=0;exitDy=0;exitPerimeter=0;" edge="1" parent="WIyWlLk6GJQsqaUBKTNV-1" source="ituSa4Jh_Zp6wQNcWbV0-6" target="ituSa4Jh_Zp6wQNcWbV0-28">
          <mxGeometry width="160" relative="1" as="geometry">
            <mxPoint x="-420" y="170" as="sourcePoint" />
            <mxPoint x="-492" y="562" as="targetPoint" />
          </mxGeometry>
        </mxCell>
        <mxCell id="ituSa4Jh_Zp6wQNcWbV0-43" style="edgeStyle=orthogonalEdgeStyle;rounded=0;orthogonalLoop=1;jettySize=auto;html=1;exitX=0;exitY=0.5;exitDx=0;exitDy=0;" edge="1" parent="WIyWlLk6GJQsqaUBKTNV-1" source="ituSa4Jh_Zp6wQNcWbV0-16">
          <mxGeometry relative="1" as="geometry">
            <mxPoint x="-520" y="220" as="targetPoint" />
            <Array as="points">
              <mxPoint x="-520" y="268" />
              <mxPoint x="-520" y="126" />
            </Array>
          </mxGeometry>
        </mxCell>
        <mxCell id="ituSa4Jh_Zp6wQNcWbV0-44" style="edgeStyle=orthogonalEdgeStyle;rounded=0;orthogonalLoop=1;jettySize=auto;html=1;exitX=0.5;exitY=0;exitDx=0;exitDy=0;entryX=0.568;entryY=1.183;entryDx=0;entryDy=0;entryPerimeter=0;" edge="1" parent="WIyWlLk6GJQsqaUBKTNV-1" source="ituSa4Jh_Zp6wQNcWbV0-32" target="ituSa4Jh_Zp6wQNcWbV0-14">
          <mxGeometry relative="1" as="geometry">
            <Array as="points">
              <mxPoint x="-150" y="562" />
              <mxPoint x="-530" y="562" />
              <mxPoint x="-530" y="220" />
              <mxPoint x="-528" y="220" />
            </Array>
          </mxGeometry>
        </mxCell>
        <mxCell id="ituSa4Jh_Zp6wQNcWbV0-45" style="edgeStyle=orthogonalEdgeStyle;rounded=0;orthogonalLoop=1;jettySize=auto;html=1;exitX=0;exitY=0.5;exitDx=0;exitDy=0;entryX=1.004;entryY=0.92;entryDx=0;entryDy=0;entryPerimeter=0;" edge="1" parent="WIyWlLk6GJQsqaUBKTNV-1" source="ituSa4Jh_Zp6wQNcWbV0-22" target="ituSa4Jh_Zp6wQNcWbV0-12">
          <mxGeometry relative="1" as="geometry" />
        </mxCell>
        <mxCell id="ituSa4Jh_Zp6wQNcWbV0-47" value="" style="endArrow=open;endFill=1;endSize=12;html=1;rounded=0;exitX=0.25;exitY=0;exitDx=0;exitDy=0;entryX=0.208;entryY=1.183;entryDx=0;entryDy=0;entryPerimeter=0;" edge="1" parent="WIyWlLk6GJQsqaUBKTNV-1" source="ituSa4Jh_Zp6wQNcWbV0-28" target="ituSa4Jh_Zp6wQNcWbV0-14">
          <mxGeometry width="160" relative="1" as="geometry">
            <mxPoint x="-190" y="320" as="sourcePoint" />
            <mxPoint x="-30" y="320" as="targetPoint" />
          </mxGeometry>
        </mxCell>
        <mxCell id="ituSa4Jh_Zp6wQNcWbV0-49" value="use" style="html=1;verticalAlign=bottom;endArrow=open;dashed=1;endSize=8;curved=0;rounded=0;entryX=0.999;entryY=0.146;entryDx=0;entryDy=0;entryPerimeter=0;exitX=0;exitY=0;exitDx=0;exitDy=72.5;exitPerimeter=0;" edge="1" parent="WIyWlLk6GJQsqaUBKTNV-1" source="ituSa4Jh_Zp6wQNcWbV0-36" target="ituSa4Jh_Zp6wQNcWbV0-33">
          <mxGeometry relative="1" as="geometry">
            <mxPoint x="120" y="730" as="sourcePoint" />
            <mxPoint x="40" y="730" as="targetPoint" />
          </mxGeometry>
        </mxCell>
        <mxCell id="ituSa4Jh_Zp6wQNcWbV0-50" value="Model" style="text;html=1;strokeColor=none;fillColor=none;align=center;verticalAlign=middle;whiteSpace=wrap;rounded=0;" vertex="1" parent="WIyWlLk6GJQsqaUBKTNV-1">
          <mxGeometry x="-630" y="-80" width="60" height="30" as="geometry" />
        </mxCell>
        <mxCell id="ituSa4Jh_Zp6wQNcWbV0-51" value="viewModel" style="text;html=1;strokeColor=none;fillColor=none;align=center;verticalAlign=middle;whiteSpace=wrap;rounded=0;" vertex="1" parent="WIyWlLk6GJQsqaUBKTNV-1">
          <mxGeometry x="-690" y="480" width="60" height="30" as="geometry" />
        </mxCell>
        <mxCell id="ituSa4Jh_Zp6wQNcWbV0-52" value="View" style="text;html=1;strokeColor=none;fillColor=none;align=center;verticalAlign=middle;whiteSpace=wrap;rounded=0;" vertex="1" parent="WIyWlLk6GJQsqaUBKTNV-1">
          <mxGeometry x="170" y="560" width="60" height="30" as="geometry" />
        </mxCell>
      </root>
    </mxGraphModel>
  </diagram>
</mxfile>
